<?xml version="1.0" standalone="no"?>
<!DOCTYPE svg PUBLIC "-//W3C//DTD SVG 20010904//EN"
 "http://www.w3.org/TR/2001/REC-SVG-20010904/DTD/svg10.dtd">
<svg version="1.0" xmlns="http://www.w3.org/2000/svg"
 width="1000.000000pt" height="1000.000000pt" viewBox="0 0 1000.000000 1000.000000"
 preserveAspectRatio="xMidYMid meet">
<metadata>
Created by potrace 1.11, written by Peter Selinger 2001-2013
</metadata>
<g transform="translate(0.000000,1000.000000) scale(0.100000,-0.100000)"
fill="#000000" stroke="none">
<path d="M4615 9989 c-1542 -126 -2928 -945 -3778 -2232 -478 -723 -747 -1508
-817 -2382 -12 -155 -12 -595 0 -750 42 -526 154 -1010 343 -1480 641 -1603
2062 -2762 3762 -3070 296 -54 545 -75 885 -75 340 0 589 21 885 75 1351 245
2533 1024 3289 2169 430 652 686 1340 793 2136 27 199 27 1041 0 1240 -60 446
-163 845 -320 1235 -464 1160 -1357 2116 -2479 2654 -571 274 -1150 429 -1793
481 -141 11 -627 11 -770 -1z m3715 -1776 c-1 -33 -58 -152 -103 -215 -61 -86
-216 -237 -318 -310 -105 -75 -316 -201 -446 -267 -94 -47 -107 -58 -238 -193
-211 -219 -468 -533 -612 -748 -249 -374 -482 -844 -735 -1490 -76 -195 -169
-430 -205 -522 -37 -93 -65 -170 -62 -172 5 -5 371 28 489 44 261 35 665 141
904 236 362 145 643 297 1021 552 285 193 403 283 605 461 132 117 259 216
267 208 9 -10 -65 -133 -126 -209 -136 -172 -511 -477 -925 -752 -388 -259
-675 -392 -1112 -515 -342 -96 -539 -126 -1073 -159 l-113 -7 -77 -180 c-478
-1113 -914 -1829 -1441 -2369 -198 -203 -321 -308 -496 -425 -267 -178 -519
-253 -798 -238 -142 8 -219 27 -333 82 -284 138 -433 444 -434 890 -1 575 305
1271 735 1672 317 295 713 490 1195 588 273 55 570 81 1114 96 215 5 394 12
398 15 12 7 -1 36 -32 69 -40 42 -99 116 -99 123 0 7 5 2 58 -60 22 -26 42
-45 44 -42 3 2 13 -5 23 -16 10 -11 21 -20 25 -20 4 0 18 26 30 57 12 32 26
67 32 78 6 11 29 63 50 115 l38 94 -27 24 c-24 20 -24 21 -3 8 51 -33 55 -8 8
44 l-33 35 37 -34 37 -34 10 24 c43 111 181 444 264 634 67 155 237 492 332
660 236 414 518 792 843 1128 57 59 103 110 101 111 -2 2 -62 -11 -133 -30
-376 -97 -813 -119 -1287 -64 -48 6 -124 13 -170 16 -46 3 -88 9 -93 12 -6 3
-42 9 -80 12 -39 4 -91 12 -116 18 -25 6 -122 30 -216 52 -229 53 -450 121
-799 245 -505 179 -586 199 -840 199 -182 1 -262 -11 -414 -60 -506 -165 -896
-683 -1016 -1349 -22 -124 -30 -368 -16 -501 33 -319 151 -569 345 -734 137
-117 262 -165 426 -163 133 2 163 10 171 49 l7 29 2 -30 c1 -17 4 -24 7 -16 3
8 19 25 34 38 15 13 31 33 34 43 4 11 13 20 21 20 13 0 13 -4 0 -28 -8 -16
-22 -34 -30 -41 -23 -19 -9 -33 17 -19 12 7 26 11 32 9 5 -1 15 6 22 15 7 10
13 13 13 6 0 -6 6 -9 14 -6 15 6 28 123 30 266 1 81 3 89 34 130 18 24 49 71
69 105 20 34 38 61 40 59 5 -4 -62 -119 -99 -170 -35 -49 -35 -65 2 -176 32
-96 35 -116 21 -124 -4 -3 -6 7 -4 22 3 19 2 23 -5 13 -7 -10 -13 -5 -22 23
-6 19 -9 44 -6 53 3 10 2 24 -3 32 -7 10 -9 8 -9 -10 0 -13 -5 -42 -11 -64 -6
-22 -11 -64 -11 -93 0 -47 2 -51 18 -41 13 8 16 22 14 57 -2 35 0 43 7 32 6
-8 11 -25 11 -37 0 -27 18 -40 26 -19 3 8 11 13 18 10 15 -6 138 79 244 169
115 98 312 322 305 348 -2 5 1 9 7 9 5 0 23 20 40 45 l31 45 -26 -10 c-38 -14
-79 -12 -125 6 -54 22 -45 29 11 8 59 -21 118 -12 151 24 39 42 147 192 169
233 27 54 23 69 -9 33 -15 -17 -53 -46 -84 -63 -47 -27 -65 -32 -108 -29 l-52
3 23 20 c18 15 20 15 10 3 -12 -17 -10 -18 28 -18 73 0 165 61 203 134 13 24
25 72 29 116 l7 75 -3 -80 c-1 -44 -6 -89 -10 -100 -6 -19 -6 -19 8 -2 8 9 27
51 42 93 27 73 27 77 11 110 -9 19 -16 40 -16 47 1 7 8 -4 16 -23 12 -28 17
-32 25 -20 7 12 8 9 7 -10 -2 -18 4 -28 25 -38 26 -13 27 -15 14 -35 -8 -12
-17 -64 -21 -117 -8 -105 -31 -157 -86 -188 -22 -13 -36 -35 -55 -87 -43 -118
-35 -121 59 -28 56 56 64 68 49 74 -14 4 -9 9 20 18 92 31 134 120 123 259
l-5 67 11 -59 c8 -44 8 -76 0 -120 -13 -67 -33 -100 -80 -132 -18 -12 -50 -45
-72 -73 -23 -29 -67 -72 -99 -97 -32 -25 -64 -57 -70 -71 -12 -27 -131 -214
-141 -223 -3 -3 -23 -27 -44 -55 -63 -84 -169 -199 -223 -243 -40 -32 -50 -46
-47 -64 3 -17 3 -19 -3 -6 -7 15 -19 10 -87 -41 -43 -32 -109 -76 -146 -97
-50 -29 -71 -47 -79 -69 -10 -28 -10 -28 -6 -3 4 22 2 26 -10 22 -9 -4 -16
-20 -16 -43 l-2 -36 -7 35 c-9 43 -10 40 -14 -34 -3 -55 -2 -57 11 -32 7 14
16 26 19 26 2 0 -3 -14 -11 -31 -21 -39 -30 -30 -30 29 0 58 -14 68 -32 22
l-13 -35 6 35 c5 29 4 33 -7 22 -8 -7 -19 -32 -26 -55 l-12 -42 5 43 c6 47 4
49 -33 25 -15 -10 -24 -12 -20 -6 6 9 3 11 -7 7 -10 -4 -16 -20 -17 -43 l-2
-36 -6 35 c-6 34 -7 35 -46 30 -22 -3 -96 -5 -165 -5 -104 0 -136 4 -190 23
-204 70 -401 256 -517 487 -41 80 -88 222 -113 342 -27 124 -38 439 -21 593
29 261 127 577 249 800 112 204 302 429 470 554 332 250 769 333 1214 231 57
-13 270 -73 473 -135 414 -124 703 -201 845 -224 52 -9 122 -21 155 -27 213
-39 713 -73 940 -64 452 18 838 111 1190 285 278 138 436 247 640 440 78 75
147 131 183 149 68 35 72 36 72 14z m-4723 -905 c-2 -13 -4 -3 -4 22 0 25 2
35 4 23 2 -13 2 -33 0 -45z m0 -73 c0 -8 -4 -12 -9 -9 -5 3 -6 10 -3 15 9 13
12 11 12 -6z m10 -67 c-3 -7 -5 -2 -5 12 0 14 2 19 5 13 2 -7 2 -19 0 -25z
m21 -73 c0 -16 -2 -15 -8 5 -11 34 -11 60 0 35 5 -11 8 -29 8 -40z m148 7
c-14 -21 -26 -47 -26 -58 0 -15 -3 -13 -15 10 -9 16 -13 31 -10 34 3 3 5 0 5
-6 0 -7 4 -12 9 -12 5 0 7 9 4 20 -4 15 -1 19 9 15 9 -4 20 4 28 20 7 14 16
23 18 20 3 -2 -7 -22 -22 -43z m-139 -94 c-3 -8 -6 -5 -6 6 -1 11 2 17 5 13 3
-3 4 -12 1 -19z m10 -60 c-3 -8 -6 -5 -6 6 -1 11 2 17 5 13 3 -3 4 -12 1 -19z
m448 2 c-3 -5 -11 -10 -16 -10 -6 0 -7 5 -4 10 3 6 11 10 16 10 6 0 7 -4 4
-10z m-188 -16 c33 -10 69 -13 91 -10 27 5 33 4 22 -3 -20 -14 -72 -14 -107 0
-15 6 -50 15 -78 19 -40 6 -43 8 -17 9 19 0 59 -6 89 -15z m-134 -1 c-7 -2
-21 -2 -30 0 -10 3 -4 5 12 5 17 0 24 -2 18 -5z m-48 -38 c6 -2 -14 -4 -43 -4
-29 -1 -51 3 -48 7 4 7 67 5 91 -3z m970 -26 c16 -30 16 -31 -4 -24 -16 5 -20
3 -15 -9 5 -12 0 -16 -17 -16 -19 0 -21 -2 -9 -10 9 -6 10 -10 3 -10 -16 0
-26 17 -13 25 6 4 8 11 5 16 -4 5 0 9 7 10 7 0 4 5 -7 10 -18 8 -17 9 6 6 21
-3 25 0 21 15 -7 28 6 21 23 -13z m44 -21 c-17 -34 -19 -34 -19 -5 0 18 5 27
15 27 13 0 14 -4 4 -22z m-1349 -43 c-14 -8 -29 -14 -35 -14 -5 0 1 6 15 14
14 8 30 14 35 14 6 0 -1 -6 -15 -14z m451 -9 c19 -8 62 -17 96 -21 74 -8 113
-34 113 -73 0 -45 19 -98 53 -150 18 -27 37 -57 43 -68 10 -17 12 -16 30 11
10 16 22 52 25 79 l6 51 2 -46 c1 -34 -5 -56 -23 -82 l-25 -36 48 -36 c27 -19
53 -35 58 -35 5 0 18 -7 29 -15 35 -28 -32 2 -79 34 -52 36 -76 63 -110 123
-15 25 -42 58 -59 73 -18 14 -25 23 -15 19 19 -7 19 7 1 94 -5 26 -39 42 -90
42 -19 0 -63 9 -97 21 -45 15 -75 19 -112 15 -34 -4 -45 -2 -35 4 22 14 103
12 141 -4z m-506 -16 c-8 -13 -74 -30 -115 -29 -30 1 -28 3 16 10 28 4 61 13
75 18 31 13 31 13 24 1z m825 -31 c15 -28 5 -23 -15 7 -9 15 -12 23 -6 20 6
-4 16 -16 21 -27z m-219 -45 c11 -10 19 -27 19 -38 0 -12 8 -37 19 -56 10 -19
21 -46 25 -60 4 -14 -7 0 -23 30 -17 30 -30 64 -31 76 0 35 -35 57 -89 58 -27
1 -47 5 -44 10 9 14 104 -2 124 -20z m-131 -19 c23 -27 6 -22 -25 9 -20 20
-23 25 -9 18 11 -6 27 -18 34 -27z m-200 15 c-8 -5 -19 -10 -25 -10 -5 0 -3 5
5 10 8 5 20 10 25 10 6 0 3 -5 -5 -10z m-455 -89 c-35 -70 -40 -64 -7 8 15 32
28 55 30 50 2 -4 -8 -30 -23 -58z m855 23 c0 -2 -9 0 -20 6 -11 6 -20 13 -20
16 0 2 9 0 20 -6 11 -6 20 -13 20 -16z m187 4 c-3 -8 -6 -5 -6 6 -1 11 2 17 5
13 3 -3 4 -12 1 -19z m-370 -20 c-3 -7 -5 -2 -5 12 0 14 2 19 5 13 2 -7 2 -19
0 -25z m1050 -20 c-3 -8 -6 -5 -6 6 -1 11 2 17 5 13 3 -3 4 -12 1 -19z m-1157
-3 c0 -2 -10 -9 -22 -15 -22 -11 -22 -10 -4 4 21 17 26 19 26 11z m-343 -57
c-3 -7 -5 -2 -5 12 0 14 2 19 5 13 2 -7 2 -19 0 -25z m594 15 c13 -16 12 -17
-3 -4 -10 7 -18 15 -18 17 0 8 8 3 21 -13z m-866 -39 c-8 -20 -15 -39 -15 -42
0 -3 -3 -3 -6 0 -6 7 22 78 31 78 3 0 -2 -16 -10 -36z m585 -19 c-30 -30 -50
-56 -45 -56 6 -1 20 -3 33 -4 12 -1 26 -6 30 -10 4 -5 0 -6 -9 -3 -20 8 -47
-31 -29 -42 8 -5 6 -9 -6 -14 -9 -3 -19 -4 -22 -1 -3 3 0 5 8 5 10 0 10 3 0
15 -7 8 -8 15 -3 15 5 0 10 7 10 15 0 28 -29 -9 -30 -39 -1 -14 -5 -26 -9 -26
-5 0 -8 -6 -8 -13 0 -17 -61 -106 -94 -137 -17 -17 -26 -37 -27 -60 -2 -32 -2
-33 -6 -6 -6 36 5 79 17 71 16 -10 90 108 111 175 13 45 31 78 56 103 29 30
32 37 17 37 -13 1 -10 5 11 15 52 23 51 17 -5 -40z m1252 33 c9 -14 12 -31 8
-43 -7 -19 -7 -19 -19 4 -8 15 -9 21 -2 17 14 -9 14 0 1 25 -15 26 -6 24 12
-3z m-1289 5 c-7 -2 -19 -2 -25 0 -7 3 -2 5 12 5 14 0 19 -2 13 -5z m-109 -43
c-28 -17 -72 -50 -98 -73 -25 -24 -46 -41 -46 -37 0 21 157 140 184 140 6 0
-12 -14 -40 -30z m1428 -179 c9 -56 9 -92 -1 -177 -7 -59 -18 -120 -23 -136
-5 -15 -18 -76 -29 -135 -16 -93 -18 -99 -13 -39 3 38 13 105 24 150 24 105
40 213 40 268 0 55 -26 160 -44 173 -12 10 -36 68 -36 89 1 34 72 -134 82
-193z m-100 140 c-7 -4 -10 -16 -7 -27 6 -16 5 -17 -4 -2 -6 9 -8 31 -4 49 6
32 7 32 17 10 7 -16 6 -25 -2 -30z m-844 14 c-3 -3 -9 2 -12 12 -6 14 -5 15 5
6 7 -7 10 -15 7 -18z m815 -15 c-5 -29 -7 -31 -14 -15 -4 11 -8 27 -8 35 -1
13 0 13 9 0 8 -13 10 -12 10 4 0 11 2 17 5 14 3 -3 2 -20 -2 -38z m-1772 -37
c-6 -21 -11 -52 -11 -70 0 -45 35 -135 66 -168 14 -15 24 -31 22 -36 -5 -16
-77 101 -89 145 -10 39 -7 125 7 161 12 30 15 7 5 -32z m270 -10 c-12 -20 -14
-14 -5 12 4 9 9 14 11 11 3 -2 0 -13 -6 -23z m399 -9 c0 -8 -19 -13 -24 -6 -3
5 1 9 9 9 8 0 15 -2 15 -3z m-413 -36 c-3 -8 -6 -5 -6 6 -1 11 2 17 5 13 3 -3
4 -12 1 -19z m383 19 c0 -2 -10 -12 -22 -23 l-23 -19 19 23 c18 21 26 27 26
19z m80 -19 c0 -6 -6 -5 -15 2 -8 7 -15 14 -15 16 0 2 7 1 15 -2 8 -4 15 -11
15 -16z m121 -89 c13 -10 20 -19 15 -19 -25 0 -56 45 -55 79 l1 36 8 -39 c4
-23 17 -46 31 -57z m-264 59 c-3 -8 -6 -5 -6 6 -1 11 2 17 5 13 3 -3 4 -12 1
-19z m149 -14 c-10 -7 -24 -21 -33 -31 -10 -12 -9 -8 2 13 10 17 24 31 32 31
13 0 13 -3 -1 -13z m189 -11 c-3 -16 -10 -32 -15 -37 -5 -5 -4 7 2 27 13 43
23 50 13 10z m51 -22 c0 -45 -1 -47 -12 -25 -7 13 -16 29 -20 36 -5 7 -3 8 5
4 8 -5 14 0 18 13 8 31 9 27 9 -28z m231 19 c-7 -17 -13 -26 -15 -21 -3 10 15
51 22 51 3 0 -1 -14 -7 -30z m-950 -77 c-2 -21 -4 -6 -4 32 0 39 2 55 4 38 2
-18 2 -50 0 -70z m510 72 c0 -8 -4 -12 -9 -9 -4 3 -8 9 -8 15 0 5 4 9 8 9 5 0
9 -7 9 -15z m-562 -5 c-3 -5 -16 -15 -28 -21 -19 -9 -19 -8 3 10 28 23 34 26
25 11z m-55 -34 c0 -2 -8 -10 -17 -17 -16 -13 -17 -12 -4 4 13 16 21 21 21 13z
m1037 -68 c-2 -13 -4 -3 -4 22 0 25 2 35 4 23 2 -13 2 -33 0 -45z m-1074 17
c-3 -9 -8 -14 -10 -11 -3 3 -2 9 2 15 9 16 15 13 8 -4z m767 11 c0 -2 -8 -10
-17 -17 -16 -13 -17 -12 -4 4 13 16 21 21 21 13z m-590 -67 c-11 -24 -20 -37
-20 -29 0 8 -3 26 -5 40 -5 21 -4 22 4 5 8 -19 9 -18 21 8 7 15 15 25 17 24 2
-2 -6 -24 -17 -48z m550 36 c0 -2 -13 -11 -30 -20 -38 -19 -40 -11 -2 9 31 17
32 18 32 11z m-763 -87 c-3 -8 -6 -5 -6 6 -1 11 2 17 5 13 3 -3 4 -12 1 -19z
m260 -112 c-4 -13 -37 82 -36 103 0 9 9 -9 20 -39 11 -30 18 -59 16 -64z
m-250 57 c-3 -10 -5 -4 -5 12 0 17 2 24 5 18 2 -7 2 -21 0 -30z m180 -40 c-3
-10 -5 -2 -5 17 0 19 2 27 5 18 2 -10 2 -26 0 -35z m-170 -45 c-2 -13 -4 -5
-4 17 -1 22 1 32 4 23 2 -10 2 -28 0 -40z m170 0 c-3 -8 -6 -5 -6 6 -1 11 2
17 5 13 3 -3 4 -12 1 -19z m114 -5 c13 -16 12 -17 -3 -4 -10 7 -18 15 -18 17
0 8 8 3 21 -13z m-121 -23 c0 -5 -5 -10 -11 -10 -5 0 -7 5 -4 10 3 6 8 10 11
10 2 0 4 -4 4 -10z m-153 -82 c-2 -18 -4 -6 -4 27 0 33 2 48 4 33 2 -15 2 -42
0 -60z m1638 -33 c55 -37 102 -71 105 -75 3 -4 33 -30 67 -58 76 -64 206 -232
191 -248 -3 -2 -22 24 -42 58 -20 35 -62 89 -94 121 -74 74 -184 167 -198 167
-6 0 -17 7 -24 15 -6 8 -32 26 -57 40 -44 24 -45 24 -50 5 -4 -16 -10 -10 -29
31 -30 65 -30 68 4 38 15 -14 72 -56 127 -94z m-1384 3 c22 -31 49 -64 61 -72
16 -12 18 -16 7 -16 -19 0 -48 31 -79 85 -13 22 -35 53 -49 70 -24 27 -24 28
-2 10 13 -11 41 -46 62 -77z m159 78 c25 -8 36 -15 25 -15 -11 0 -33 6 -50 14
-39 18 -31 18 25 1z m97 -22 c-3 -3 -12 -4 -19 -1 -8 3 -5 6 6 6 11 1 17 -2
13 -5z m1101 -112 c27 -37 62 -97 77 -132 35 -85 40 -101 19 -65 -9 17 -26 41
-38 54 -11 13 -15 21 -8 17 15 -9 15 -6 -2 34 -7 18 -24 39 -37 46 -13 7 -18
13 -10 14 11 0 10 6 -5 23 -23 25 -57 77 -51 77 3 0 27 -30 55 -68z m-1626 11
c-9 -15 -2 -20 49 -36 53 -16 62 -23 93 -71 40 -62 71 -89 131 -112 52 -19
100 -13 140 17 14 12 28 19 31 16 11 -11 -84 -57 -117 -57 -19 0 -59 13 -89
28 -42 21 -64 41 -94 86 -43 64 -105 101 -156 94 l-29 -4 20 24 c10 14 19 32
20 41 0 10 3 11 5 4 3 -7 1 -20 -4 -30z m451 -48 c31 -22 13 -18 -25 5 -18 11
-27 20 -20 20 7 0 13 14 14 33 1 31 1 31 5 -5 3 -24 12 -43 26 -53z m1115 20
l0 -30 -8 30 c-4 17 -8 39 -8 50 l-1 20 9 -20 c5 -11 8 -33 8 -50z m-553 -13
c-3 -3 -11 0 -18 7 -9 10 -8 11 6 5 10 -3 15 -9 12 -12z m-675 -47 c13 -14 21
-25 18 -25 -2 0 -15 11 -28 25 -13 14 -21 25 -18 25 2 0 15 -11 28 -25z m824
-6 c14 -11 26 -26 26 -32 0 -6 -7 -1 -16 11 -16 23 -54 30 -54 10 0 -6 -3 -9
-6 -5 -8 8 3 37 14 37 5 0 21 -9 36 -21z m422 -254 c-7 -106 17 -309 46 -405
30 -96 84 -188 147 -250 57 -56 182 -130 220 -130 22 0 29 24 11 35 -5 3 -10
15 -10 26 0 10 -3 19 -7 19 -5 0 -9 17 -9 38 -1 20 0 29 3 20 2 -10 9 -18 14
-18 6 0 7 -5 3 -11 -3 -6 -2 -21 4 -32 5 -12 14 -33 19 -47 9 -23 11 -22 26
25 26 84 30 108 15 99 -7 -4 -4 2 6 14 30 35 42 245 22 392 -6 44 -5 44 5 10
7 -19 12 -105 12 -190 0 -160 -15 -263 -50 -343 -16 -36 -16 -40 5 -90 11 -29
16 -44 9 -33 -32 49 -49 63 -89 75 -57 17 -198 93 -224 123 -38 40 -103 148
-125 207 -48 127 -60 220 -64 491 -2 205 -1 236 7 160 5 -52 7 -135 4 -185z
m151 198 c-3 -10 -5 -2 -5 17 0 19 2 27 5 18 2 -10 2 -26 0 -35z m-1260 11
c-3 -3 -12 -4 -19 -1 -8 3 -5 6 6 6 11 1 17 -2 13 -5z m1335 -74 c7 11 8 9 4
-10 -3 -14 -6 -34 -7 -45 -2 -33 -18 57 -17 95 1 29 2 27 5 -10 3 -33 7 -40
15 -30z m-539 52 c2 7 7 11 10 8 3 -3 0 -13 -7 -22 -11 -15 -13 -15 -26 5 -12
20 -12 21 2 9 13 -10 17 -10 21 0z m495 -125 c25 -33 7 -38 -23 -7 -26 27 -27
31 -10 28 11 -1 26 -11 33 -21z m25 -58 c-6 -6 -7 3 -4 23 4 28 6 29 9 9 2
-13 0 -27 -5 -32z m-518 31 c4 -6 -6 -10 -22 -9 -25 0 -26 1 -8 9 11 5 21 9
22 9 1 1 5 -3 8 -9z m-375 -58 c0 -8 8 -21 18 -30 10 -10 12 -13 5 -9 -7 5
-35 7 -62 5 -27 -1 -47 0 -44 5 2 4 20 7 40 7 37 0 37 1 18 55 -7 20 -6 20 9
1 9 -11 16 -26 16 -34z m531 31 c13 -16 12 -17 -3 -4 -17 13 -22 21 -14 21 2
0 10 -8 17 -17z m-35 -24 c3 -6 -5 -3 -20 6 -14 10 -26 19 -26 22 0 7 39 -17
46 -28z m653 -44 c0 -5 -6 1 -14 15 -8 14 -14 30 -14 35 0 6 6 -1 14 -15 8
-14 14 -29 14 -35z m-554 -19 c11 -8 16 -15 10 -15 -5 0 -23 11 -40 25 -31 26
-6 18 30 -10z m482 2 c-3 -8 -6 -5 -6 6 -1 11 2 17 5 13 3 -3 4 -12 1 -19z
m-162 -12 c1 0 7 -14 13 -30 7 -16 10 -31 7 -34 -3 -3 -5 0 -5 7 0 7 -15 27
-32 43 -31 29 -31 30 -8 23 14 -4 25 -8 25 -9z m52 -23 c-3 -10 -5 -4 -5 12 0
17 2 24 5 18 2 -7 2 -21 0 -30z m207 -13 c5 -17 4 -20 -2 -10 -5 8 -13 26 -16
40 -5 17 -4 20 2 10 5 -8 13 -26 16 -40z m-2144 26 c0 -2 -8 -10 -17 -17 -16
-13 -17 -12 -4 4 13 16 21 21 21 13z m1531 -23 c-12 -20 -14 -14 -5 12 4 9 9
14 11 11 3 -2 0 -13 -6 -23z m-290 0 c13 -16 12 -17 -3 -4 -10 7 -18 15 -18
17 0 8 8 3 21 -13z m766 -15 c-3 -8 -6 -5 -6 6 -1 11 2 17 5 13 3 -3 4 -12 1
-19z m-2029 -38 c-7 -10 -14 -17 -17 -15 -4 4 18 35 25 35 2 0 -1 -9 -8 -20z
m1289 -37 c-3 -10 -5 -2 -5 17 0 19 2 27 5 18 2 -10 2 -26 0 -35z m754 16 c-5
-13 -10 -19 -10 -12 -1 15 10 45 15 40 3 -2 0 -15 -5 -28z m-2091 1 c-6 -11
-8 -20 -5 -20 3 0 -4 -9 -15 -20 -27 -27 -26 -44 3 -29 20 11 21 11 8 -5 -8
-9 -23 -22 -34 -27 -17 -10 -18 -8 -12 13 8 27 54 108 61 108 2 0 0 -9 -6 -20z
m1976 -29 c-7 -11 18 -33 27 -24 4 3 7 -2 7 -12 0 -17 -2 -16 -25 5 -21 20
-25 40 -9 40 3 0 3 -4 0 -9z m101 -38 c-3 -10 -5 -4 -5 12 0 17 2 24 5 18 2
-7 2 -21 0 -30z m-2020 -5 c-3 -8 -6 -5 -6 6 -1 11 2 17 5 13 3 -3 4 -12 1
-19z m1303 -13 c0 -5 -5 -3 -10 5 -5 8 -10 20 -10 25 0 6 5 3 10 -5 5 -8 10
-19 10 -25z m611 -2 c13 -16 12 -17 -3 -4 -10 7 -18 15 -18 17 0 8 8 3 21 -13z
m-696 -3 c3 -5 1 -10 -4 -10 -6 0 -11 5 -11 10 0 6 2 10 4 10 3 0 8 -4 11 -10z
m842 -12 c-3 -8 -6 -5 -6 6 -1 11 2 17 5 13 3 -3 4 -12 1 -19z m-758 -11 c6
10 11 13 11 7 0 -5 -6 -17 -12 -26 -12 -14 -16 -13 -37 15 l-25 32 26 -23 c25
-23 27 -23 37 -5z m713 5 c3 -9 1 -26 -3 -37 -6 -15 -8 -11 -8 18 -1 40 4 48
11 19z m-2025 -24 c-3 -7 -5 -2 -5 12 0 14 2 19 5 13 2 -7 2 -19 0 -25z m1192
16 c-19 -23 -68 -46 -87 -41 -13 4 -13 5 3 6 11 0 36 12 55 26 41 29 47 30 29
9z m-1318 -49 c-9 -25 -17 -41 -19 -36 -3 10 24 81 31 81 3 0 -3 -20 -12 -45z
m82 36 c-4 -3 -26 -22 -48 -41 -21 -19 -33 -26 -25 -15 29 41 51 62 66 62 8 0
11 -3 7 -6z m661 -18 c10 -25 3 -23 -17 3 -13 18 -14 22 -3 18 8 -3 17 -13 20
-21z m1364 2 c-3 -3 -9 2 -12 12 -6 14 -5 15 5 6 7 -7 10 -15 7 -18z m-938
-60 c-24 -24 -46 -43 -48 -40 -5 4 78 84 88 85 2 0 -16 -20 -40 -45z m974 -25
c8 -57 31 -122 39 -114 3 3 3 -3 0 -14 -2 -11 0 -23 6 -26 6 -4 11 -17 10 -29
0 -17 -5 -12 -20 19 -10 23 -35 53 -54 68 -19 15 -33 31 -30 36 8 14 34 0 29
-15 -3 -7 2 -15 12 -19 13 -5 15 -2 9 16 -3 13 -10 43 -15 68 -5 25 -12 54
-16 65 -7 18 -6 18 8 5 8 -9 18 -36 22 -60z m-1387 28 c-3 -8 -6 -5 -6 6 -1
11 2 17 5 13 3 -3 4 -12 1 -19z m233 -24 c0 -2 -7 -4 -15 -4 -8 0 -15 4 -15
10 0 5 7 7 15 4 8 -4 15 -8 15 -10z m454 -34 c5 -17 4 -20 -2 -10 -5 8 -13 26
-16 40 -5 17 -4 20 2 10 5 -8 13 -26 16 -40z m-448 4 c9 9 19 14 23 10 3 -4 0
-9 -7 -11 -6 -3 -9 -9 -6 -15 5 -7 -2 -9 -20 -6 -28 6 -36 -6 -11 -16 17 -6
20 -32 6 -40 -5 -4 -7 3 -4 14 6 24 -4 26 -29 3 -10 -9 -18 -11 -18 -5 0 6 7
15 16 20 14 8 14 11 2 23 -11 10 -12 17 -4 26 9 9 14 8 23 -4 11 -14 14 -14
29 1z m616 -25 c4 -19 10 -55 13 -81 7 -53 15 -60 30 -25 6 12 17 22 25 22 11
0 16 -15 18 -62 3 -66 24 -100 44 -72 8 11 9 11 4 -3 -4 -12 4 -20 30 -28 18
-6 34 -16 34 -22 0 -5 6 -8 13 -5 6 2 20 -2 30 -11 16 -14 17 -13 18 9 1 23 1
22 9 -4 5 -16 14 -35 21 -43 15 -18 0 -18 -25 1 -27 20 -50 19 -71 -5 -10 -11
-23 -20 -28 -20 -6 0 0 11 13 25 l23 25 -32 0 c-37 0 -50 -22 -30 -48 13 -15
12 -16 -3 -3 -25 19 -22 46 5 58 l22 11 -26 7 c-15 3 -42 2 -61 -3 -41 -11
-68 0 -68 29 0 14 9 21 30 25 l30 6 -24 19 c-13 11 -40 19 -59 19 -26 0 -41 7
-56 26 -37 47 -25 69 28 54 40 -11 47 2 35 67 -10 50 -28 67 -39 33 -4 -13 2
-37 15 -63 22 -41 22 -41 2 -23 -30 26 -37 71 -17 102 21 32 38 26 47 -17z
m-855 -26 c-3 -10 -5 -2 -5 17 0 19 2 27 5 18 2 -10 2 -26 0 -35z m1663 26 c0
-6 -4 -7 -10 -4 -5 3 -10 11 -10 16 0 6 5 7 10 4 6 -3 10 -11 10 -16z m-984
-45 c-6 -19 -12 -28 -14 -20 -3 13 14 56 22 56 2 0 -2 -16 -8 -36z m855 -11
c-12 -20 -14 -14 -5 12 4 9 9 14 11 11 3 -2 0 -13 -6 -23z m-50 -30 c-11 -21
-20 -35 -21 -31 0 12 33 78 38 74 2 -2 -6 -21 -17 -43z m322 -28 c24 -36 14
-26 -39 35 -25 30 -29 37 -10 20 15 -14 37 -38 49 -55z m-1944 5 c0 -10 -3 -8
-9 5 -12 27 -12 43 0 25 5 -8 9 -22 9 -30z m138 18 c-3 -8 -6 -5 -6 6 -1 11 2
17 5 13 3 -3 4 -12 1 -19z m1723 7 c0 -1 -9 -5 -19 -8 -13 -3 -18 -1 -14 9 4
10 33 10 33 -1z m-1043 -52 c-3 -10 -5 -2 -5 17 0 19 2 27 5 18 2 -10 2 -26 0
-35z m823 7 c-6 -12 -14 -19 -17 -17 -2 3 1 15 7 27 6 12 14 19 17 17 2 -3 -1
-15 -7 -27z m265 10 c10 -11 16 -20 13 -20 -3 0 -13 9 -23 20 -10 11 -16 20
-13 20 3 0 13 -9 23 -20z m-1665 -25 c0 -8 -40 9 -51 21 -8 10 -3 10 20 -2 17
-9 31 -17 31 -19z m321 -28 l24 -4 -25 -2 c-14 0 -42 10 -63 24 -49 34 -48 42
1 11 21 -13 50 -26 63 -29z m595 11 c4 -6 3 -8 -4 -4 -6 3 -18 -4 -26 -16 -9
-12 -16 -17 -16 -11 0 11 26 43 35 43 2 0 7 -5 11 -12z m-896 -23 c14 -19 14
-19 -2 -6 -10 7 -18 18 -18 24 0 6 1 8 3 6 1 -2 9 -13 17 -24z m550 21 c0 -2
-8 -10 -17 -17 -16 -13 -17 -12 -4 4 13 16 21 21 21 13z m-772 -31 c-3 -3 -9
2 -12 12 -6 14 -5 15 5 6 7 -7 10 -15 7 -18z m1911 -15 c0 -10 -3 -8 -9 5 -12
27 -12 43 0 25 5 -8 9 -22 9 -30z m-782 -2 c-3 -7 -5 -2 -5 12 0 14 2 19 5 13
2 -7 2 -19 0 -25z m-456 -11 c-10 -9 -11 -8 -5 6 3 10 9 15 12 12 3 -3 0 -11
-7 -18z m-353 -12 c20 -14 33 -25 29 -25 -5 0 -25 11 -45 25 -20 14 -33 25
-29 25 5 0 25 -11 45 -25z m880 13 c7 -7 12 -17 12 -22 0 -6 -5 -3 -11 7 -14
24 -29 21 -30 -5 0 -13 -3 -17 -6 -10 -6 15 3 42 15 42 4 0 13 -5 20 -12z
m-565 -43 c-3 -9 -8 -14 -11 -11 -2 3 -17 -1 -33 -9 -45 -24 -48 -17 -4 9 48
29 56 31 48 11z m-1206 -17 c-3 -8 -6 -5 -6 6 -1 11 2 17 5 13 3 -3 4 -12 1
-19z m-54 -52 c2 -51 15 -76 26 -45 2 7 -1 9 -9 4 -8 -5 -7 2 3 21 8 16 17 36
20 44 3 8 4 -6 1 -32 -2 -27 -1 -48 2 -48 11 0 44 42 44 55 0 7 7 16 16 19 13
5 13 0 -4 -26 -18 -30 -122 -111 -130 -103 -2 2 1 12 7 23 6 12 11 51 11 88 0
80 11 80 13 0z m697 29 c0 -5 -5 -3 -10 5 -5 8 -10 20 -10 25 0 6 5 3 10 -5 5
-8 10 -19 10 -25z m305 -5 c-14 -27 -64 -70 -81 -70 -5 0 8 11 28 25 37 25 55
56 43 75 -3 6 0 7 9 4 14 -5 14 -9 1 -34z m114 14 c9 -8 -45 -2 -64 6 -14 7
-8 8 20 3 22 -3 42 -7 44 -9z m198 10 c-3 -3 -12 -4 -19 -1 -8 3 -5 6 6 6 11
1 17 -2 13 -5z m-1246 -27 c-10 -9 -11 -8 -5 6 3 10 9 15 12 12 3 -3 0 -11 -7
-18z m1075 -6 c-16 -31 -71 -81 -88 -81 -6 0 4 10 23 23 19 12 41 37 49 54 8
18 18 33 23 33 4 0 1 -13 -7 -29z m211 23 c-3 -3 -12 -4 -19 -1 -8 3 -5 6 6 6
11 1 17 -2 13 -5z m-587 -49 c41 -34 56 -39 115 -37 l30 1 -28 -9 c-35 -11
-83 3 -116 33 -14 14 -35 29 -46 35 -11 6 -15 12 -8 12 6 0 30 -16 53 -35z
m-107 5 c3 -11 1 -18 -4 -14 -5 3 -9 12 -9 20 0 20 7 17 13 -6z m845 -25 c30
-46 23 -44 -17 5 -17 22 -26 37 -19 35 7 -3 23 -21 36 -40z m-781 -39 c23 -18
56 -39 73 -46 17 -7 29 -15 26 -17 -2 -2 -18 3 -36 12 -38 19 -125 85 -113 85
4 0 27 -15 50 -34z m463 29 c0 -8 -59 -35 -77 -35 -10 1 -1 7 20 15 21 7 41
16 44 19 8 7 13 8 13 1z m361 -12 c13 -16 12 -17 -3 -4 -17 13 -22 21 -14 21
2 0 10 -8 17 -17z m89 -66 l65 -3 -66 -2 c-60 -2 -68 0 -90 26 l-24 27 25 -22
c19 -17 41 -23 90 -26z m588 26 c-10 -2 -28 -2 -40 0 -13 2 -5 4 17 4 22 1 32
-1 23 -4z m79 -17 c0 -11 -4 -12 -18 -3 -10 6 -16 14 -13 19 7 11 31 -1 31
-16z m-1297 9 c0 -2 -10 -9 -22 -15 -22 -11 -22 -10 -4 4 21 17 26 19 26 11z
m837 -11 c-3 -3 -12 -4 -19 -1 -8 3 -5 6 6 6 11 1 17 -2 13 -5z m526 -1 c-7
-2 -19 -2 -25 0 -7 3 -2 5 12 5 14 0 19 -2 13 -5z m-1506 -29 c-3 -3 -12 -4
-19 -1 -8 3 -5 6 6 6 11 1 17 -2 13 -5z m1136 -11 c-7 -2 -19 -2 -25 0 -7 3
-2 5 12 5 14 0 19 -2 13 -5z m50 -10 c-7 -2 -19 -2 -25 0 -7 3 -2 5 12 5 14 0
19 -2 13 -5z m-700 -10 c-7 -2 -19 -2 -25 0 -7 3 -2 5 12 5 14 0 19 -2 13 -5z
m28 -40 c13 -16 12 -17 -3 -4 -10 7 -18 15 -18 17 0 8 8 3 21 -13z m113 2
c-10 -8 -26 -14 -34 -15 -8 0 -4 6 10 14 34 19 48 20 24 1z m686 0 c17 -9 30
-18 30 -21 0 -4 -59 23 -69 32 -10 9 13 3 39 -11z m-920 2 c0 -2 -10 -12 -22
-23 l-23 -19 19 23 c18 21 26 27 26 19z m985 -7 c3 -6 -1 -7 -9 -4 -18 7 -21
14 -7 14 6 0 13 -4 16 -10z m45 -45 c14 -8 21 -14 15 -14 -5 0 -21 6 -35 14
-14 8 -20 14 -15 14 6 0 21 -6 35 -14z m-1094 -6 c-15 -9 -16 -13 -5 -21 11
-8 10 -8 -4 -4 -10 3 -24 6 -30 6 -14 1 33 29 48 29 6 0 2 -4 -9 -10z m234 7
c0 -2 -8 -10 -17 -17 -16 -13 -17 -12 -4 4 13 16 21 21 21 13z m-163 -52 c-3
-3 -12 -4 -19 -1 -8 3 -5 6 6 6 11 1 17 -2 13 -5z m38 -4 c3 -5 -1 -10 -10
-10 -9 0 -13 5 -10 10 3 6 8 10 10 10 2 0 7 -4 10 -10z"/>
<path d="M4125 6188 c-2 -12 -14 -66 -25 -118 -12 -52 -27 -117 -35 -144 -8
-27 -13 -51 -11 -53 9 -9 34 12 58 48 21 33 28 57 33 127 3 48 11 98 16 111 5
13 8 24 7 25 -2 1 -11 8 -20 15 -15 11 -18 10 -23 -11z"/>
<path d="M3151 5195 c0 -11 4 -27 9 -35 9 -13 10 -13 9 0 0 8 -4 24 -9 35 l-9
20 0 -20z"/>
<path d="M4270 4150 c-543 -31 -969 -167 -1331 -426 -114 -81 -336 -299 -423
-414 -373 -495 -567 -1134 -486 -1602 35 -208 93 -339 199 -451 115 -121 264
-176 479 -177 172 0 384 50 537 127 352 178 831 663 1217 1233 194 286 322
508 508 880 150 298 387 817 378 825 -8 9 -943 13 -1078 5z"/>
<path d="M4607 4843 c-12 -11 -8 -60 6 -71 9 -8 12 0 12 34 1 42 -4 52 -18 37z"/>
<path d="M4480 4826 c0 -19 20 -33 58 -38 44 -6 43 19 -3 38 -43 18 -55 18
-55 0z"/>
<path d="M4573 4698 c2 -7 9 -13 15 -12 7 1 31 2 55 3 31 1 38 4 27 11 -23 15
-103 13 -97 -2z"/>
</g>
</svg>
